<svg width="502" height="363" viewBox="0 0 502 363" fill="none" xmlns="http://www.w3.org/2000/svg">
<path d="M474.522 47.8407H54.264V270.039H474.522V47.8407Z" fill="#F2F2F2"/>
<path opacity="0.3" d="M230.68 85.9319H94.9043V249.633H230.68V85.9319Z" fill="#3F3D56"/>
<path d="M391.394 97.722H282.866V103.617H391.394V97.722Z" fill="#3F3D56"/>
<path d="M440.809 108.605H282.866V114.5H440.809V108.605Z" fill="#3F3D56"/>
<path d="M391.394 134.906H282.866V140.801H391.394V134.906Z" fill="#3F3D56"/>
<path d="M391.394 178.439H282.866V184.334H391.394V178.439Z" fill="#3F3D56"/>
<path d="M440.809 145.79H282.866V151.685H440.809V145.79Z" fill="#3F3D56"/>
<path d="M440.809 156.673H282.866V162.568H440.809V156.673Z" fill="#3F3D56"/>
<path d="M440.809 167.556H282.866V173.451H440.809V167.556Z" fill="#3F3D56"/>
<path d="M339.67 204.74H282.866V220.158H339.67V204.74Z" fill="#FF4C29"/>
<path d="M239.454 77.0893H103.679V240.791H239.454V77.0893Z" fill="#3F3D56"/>
<path d="M220.058 167.605C220.058 199.398 200.809 210.499 177.065 210.499C153.321 210.499 134.072 199.398 134.072 167.605C134.072 135.812 177.065 95.3662 177.065 95.3662C177.065 95.3662 220.058 135.812 220.058 167.605Z" fill="#FF4C29"/>
<path d="M175.499 205.635L175.939 179.027L194.264 146.11L176.008 174.854L176.206 162.889L188.836 139.074L176.258 159.723V159.724L176.614 138.206L190.138 119.245L176.67 134.822L176.893 95.3663L175.495 147.599L175.61 145.444L161.86 124.779L175.389 149.58L174.108 173.612L174.07 172.974L158.219 151.227L174.022 175.227L173.862 178.233L173.833 178.278L173.846 178.525L170.596 239.495H174.938L175.46 208.002L191.224 184.061L175.499 205.635Z" fill="#3F3D56"/>
<path d="M60.7286 363C94.1411 363 121.227 359.549 121.227 355.291C121.227 351.034 94.1411 347.582 60.7286 347.582C27.3161 347.582 0.229992 351.034 0.229992 355.291C0.229992 359.549 27.3161 363 60.7286 363Z" fill="#3F3D56"/>
<path d="M32.1535 141.879L30.1438 146.565L32.4047 176.904C32.4047 176.904 31.1487 178.631 32.4047 179.864C33.6607 181.097 33.4095 181.591 33.4095 181.591C33.4095 181.591 31.3999 181.591 32.4047 183.071C33.4095 184.551 33.4095 185.291 33.4095 185.291L32.9071 186.771C32.9071 186.771 33.9119 188.004 33.9119 188.991C33.9119 189.977 40.4432 220.316 40.4432 220.316L46.7233 208.23L43.2064 160.132L32.1535 141.879Z" fill="#FF4C29"/>
<path d="M98.2334 217.77C98.2334 217.77 109.286 225.763 109.675 232.155C110.064 238.548 95.4279 222.636 95.3284 220.843C95.2289 219.05 98.2334 217.77 98.2334 217.77Z" fill="#FFB9B9"/>
<path d="M28.8878 338.712L26.1246 347.592C26.1246 347.592 22.1054 356.225 27.6318 357.458C33.1583 358.692 38.4336 354.005 38.4336 354.005V348.085L40.4432 338.712H28.8878Z" fill="#2F2E41"/>
<path d="M74.1044 338.712C74.1044 338.712 72.8484 355.485 75.6116 356.472C78.3749 357.458 88.1718 357.705 88.423 356.472C88.6743 355.239 91.6887 354.005 89.4279 352.279C87.167 350.552 85.6598 340.439 85.6598 340.439L74.1044 338.712Z" fill="#2F2E41"/>
<path d="M48.7329 179.864V187.264C48.7329 187.264 40.4432 204.283 37.4287 231.169C34.4143 258.055 24.115 339.946 26.627 341.426C29.139 342.906 56.269 343.892 57.0226 341.919C57.7762 339.946 58.5298 282.228 58.5298 282.228L67.8243 241.529C67.8243 241.529 69.5828 256.082 71.09 258.548C72.5972 261.015 68.578 341.179 71.09 342.412C73.602 343.646 107.514 345.865 107.012 341.919C106.51 337.972 95.2055 230.923 95.2055 230.923C95.2055 230.923 89.4278 180.357 87.6694 179.864C85.911 179.371 69.834 178.878 67.322 179.371C64.8099 179.864 48.7329 179.864 48.7329 179.864Z" fill="#2F2E41"/>
<path d="M67.8243 118.693C75.7323 118.693 82.1429 112.398 82.1429 104.633C82.1429 96.8684 75.7323 90.5737 67.8243 90.5737C59.9164 90.5737 53.5058 96.8684 53.5058 104.633C53.5058 112.398 59.9164 118.693 67.8243 118.693Z" fill="#FFB9B9"/>
<path d="M70.8388 116.473C70.8388 116.473 63.5539 127.573 65.3123 130.532C67.0707 133.492 46.7233 127.573 46.7233 127.573C46.7233 127.573 59.0322 112.773 58.781 111.046C58.5298 109.32 70.8388 116.473 70.8388 116.473Z" fill="#FFB9B9"/>
<path d="M85.911 132.999C85.911 132.999 72.5972 128.806 70.8388 127.079C69.7107 125.948 68.7009 124.708 67.8243 123.379C67.8243 123.379 51.7473 121.159 51.2449 121.159C50.7425 121.159 46.9745 125.599 45.9696 126.586C44.9648 127.573 32.1535 134.232 32.1535 135.959C32.1535 137.686 30.1438 146.565 30.1438 146.565C30.1438 146.565 34.6655 155.692 37.4287 157.665C40.192 159.638 40.9456 159.145 41.1968 162.351C41.448 165.558 44.9648 170.738 44.9648 170.738C44.9648 170.738 47.2257 176.411 46.7233 178.138C46.2209 179.864 43.96 181.344 49.2353 180.851C54.5106 180.358 80.6357 181.837 80.6357 179.124C80.6357 176.411 75.6116 150.512 75.6116 150.512L85.911 132.999Z" fill="#FF4C29"/>
<path d="M81.1381 133.492L85.911 132.999C85.911 132.999 87.6694 133.986 87.9206 143.605C88.1718 153.225 88.1718 176.411 89.9302 178.384C91.6887 180.357 98.9736 210.943 98.9736 210.943C98.9736 210.943 100.983 211.436 100.983 213.163C100.983 214.89 103.244 216.37 102.239 218.343C101.234 220.316 103.244 219.823 101.988 221.056C100.732 222.289 94.7031 224.756 94.4519 223.276C94.2007 221.796 95.2055 221.549 94.2007 221.056C93.1959 220.563 93.1959 220.316 92.9447 218.59C92.6935 216.863 90.4326 215.136 90.6838 214.396C90.9351 213.656 79.6309 192.197 79.6309 191.457C79.6309 190.717 78.8773 188.004 77.8725 187.511C76.8677 187.017 75.3604 186.524 76.1141 185.291C76.8677 184.057 74.1044 147.059 74.1044 147.059L81.1381 133.492Z" fill="#FF4C29"/>
<path d="M79.9327 95.7169C75.5419 91.0369 68.6465 88.5529 62.323 89.9449C55.9996 91.337 50.6749 96.8496 50.1804 103.194C50.0792 104.492 50.1635 105.818 49.8215 107.075C49.2463 109.19 47.5345 110.867 46.9311 112.974C46.5269 114.386 46.6467 115.906 46.2184 117.311C45.4268 119.906 42.9769 121.599 41.1096 123.593C40.3534 124.325 39.7918 125.227 39.4742 126.221C39.31 127.103 39.2684 128.002 39.3505 128.895C39.4292 133.707 37.6073 138.362 34.267 141.883C36.2311 140.451 38.3531 139.239 40.593 138.272C39.4827 141.744 40.4977 145.851 43.2912 148.242C46.0847 150.633 50.5589 151.004 53.5793 148.896C55.3736 147.644 56.539 145.722 57.6521 143.857L61.8666 136.796C62.629 135.519 63.4248 134.204 64.6429 133.332C65.6108 132.639 66.787 132.27 67.7613 131.585C70.2192 129.859 70.8792 126.479 70.4215 123.545C69.9639 120.612 68.6204 117.888 67.8499 115.019C67.2405 112.749 67.0493 110.148 68.4202 108.226C70.24 105.673 73.98 105.348 76.4528 103.396C77.3838 102.66 77.7998 101.766 78.4666 100.846C79.0821 99.9968 79.239 100.301 80.1928 100.262C82.8118 100.156 80.9032 96.7513 79.9327 95.7169Z" fill="#2F2E41"/>
<path d="M67.4259 112.233C68.0636 112.233 68.5805 111.015 68.5805 109.512C68.5805 108.01 68.0636 106.791 67.4259 106.791C66.7883 106.791 66.2714 108.01 66.2714 109.512C66.2714 111.015 66.7883 112.233 67.4259 112.233Z" fill="#FFB9B9"/>
<path d="M311.268 329.217C319.43 329.217 326.046 322.72 326.046 314.706C326.046 306.692 319.43 300.195 311.268 300.195C303.106 300.195 296.489 306.692 296.489 314.706C296.489 322.72 303.106 329.217 311.268 329.217Z" fill="#F2F2F2"/>
<path d="M14.7783 43.5328C22.9401 43.5328 29.5566 37.036 29.5566 29.0219C29.5566 21.0077 22.9401 14.5109 14.7783 14.5109C6.61647 14.5109 0 21.0077 0 29.0219C0 37.036 6.61647 43.5328 14.7783 43.5328Z" fill="#F2F2F2"/>
<path d="M487.222 29.0219C495.384 29.0219 502 22.5251 502 14.5109C502 6.49676 495.384 0 487.222 0C479.06 0 472.443 6.49676 472.443 14.5109C472.443 22.5251 479.06 29.0219 487.222 29.0219Z" fill="#F2F2F2"/>
</svg>
